<svg width="27" height="27" viewBox="0 0 27 27" fill="none" xmlns="http://www.w3.org/2000/svg">
<path d="M16.3125 11.25C15.3788 11.25 14.625 10.4962 14.625 9.5625V3.9375C14.625 3.00375 15.3788 2.25 16.3125 2.25C17.2462 2.25 18 3.00375 18 3.9375V9.5625C18 10.4962 17.2462 11.25 16.3125 11.25Z" stroke="white" stroke-width="1.5" stroke-linecap="round" stroke-linejoin="round"/>
<path d="M23.0625 11.25H21.375V9.5625C21.375 8.62875 22.1288 7.875 23.0625 7.875C23.9962 7.875 24.75 8.62875 24.75 9.5625C24.75 10.4962 23.9962 11.25 23.0625 11.25Z" stroke="white" stroke-width="1.5" stroke-linecap="round" stroke-linejoin="round"/>
<path d="M10.6875 15.75C11.6212 15.75 12.375 16.5038 12.375 17.4375V23.0625C12.375 23.9962 11.6212 24.75 10.6875 24.75C9.75375 24.75 9 23.9962 9 23.0625V17.4375C9 16.5038 9.75375 15.75 10.6875 15.75Z" stroke="white" stroke-width="1.5" stroke-linecap="round" stroke-linejoin="round"/>
<path d="M3.9375 15.75H5.625V17.4375C5.625 18.3712 4.87125 19.125 3.9375 19.125C3.00375 19.125 2.25 18.3712 2.25 17.4375C2.25 16.5038 3.00375 15.75 3.9375 15.75Z" stroke="white" stroke-width="1.5" stroke-linecap="round" stroke-linejoin="round"/>
<path d="M15.75 16.3125C15.75 15.3788 16.5038 14.625 17.4375 14.625H23.0625C23.9962 14.625 24.75 15.3788 24.75 16.3125C24.75 17.2462 23.9962 18 23.0625 18H17.4375C16.5038 18 15.75 17.2462 15.75 16.3125Z" stroke="white" stroke-width="1.5" stroke-linecap="round" stroke-linejoin="round"/>
<path d="M17.4375 21.375H15.75V23.0625C15.75 23.9962 16.5038 24.75 17.4375 24.75C18.3712 24.75 19.125 23.9962 19.125 23.0625C19.125 22.1288 18.3712 21.375 17.4375 21.375Z" stroke="white" stroke-width="1.5" stroke-linecap="round" stroke-linejoin="round"/>
<path d="M11.25 10.6875C11.25 9.75375 10.4962 9 9.5625 9H3.9375C3.00375 9 2.25 9.75375 2.25 10.6875C2.25 11.6212 3.00375 12.375 3.9375 12.375H9.5625C10.4962 12.375 11.25 11.6212 11.25 10.6875Z" stroke="white" stroke-width="1.5" stroke-linecap="round" stroke-linejoin="round"/>
<path d="M9.5625 5.625H11.25V3.9375C11.25 3.00375 10.4962 2.25 9.5625 2.25C8.62875 2.25 7.875 3.00375 7.875 3.9375C7.875 4.87125 8.62875 5.625 9.5625 5.625Z" stroke="white" stroke-width="1.5" stroke-linecap="round" stroke-linejoin="round"/>
</svg>
